<?xml version="1.0" encoding="utf-8"?>
<!-- Generator: Adobe Adobe Illustrator 24.2.0, SVG Export Plug-In . SVG Version: 6.00 Build 0)  -->
<svg version="1.1" id="Layer_1" xmlns="http://www.w3.org/2000/svg" xmlns:xlink="http://www.w3.org/1999/xlink" x="0px" y="0px"
	 width="1080px" height="1080px" viewBox="0 0 1080 1080" style="enable-background:new 0 0 1080 1080;" xml:space="preserve">
<style type="text/css">
	.st0{fill:#181818;}
	.st1{fill:none;}
	.st2{fill:#030303;}
	.st3{fill:#EF3A5D;stroke:#EF3A5D;stroke-width:2;stroke-miterlimit:10;}
	.st4{fill:#FFFFFF;}
	.st5{fill:#EF3C5D;}
</style>
<g>
	<g>
		<g>
			<path class="st0" d="M378.75,693.43c-26.05,0.76-56.66,0.43-61.08-0.67c3.54-12.77,7.08-25.53,10.74-38.74
				c21.36,0,42.83,0,64.75-0.01c1.82-5.37,3.21-10.77,4.89-16.67c-18.76-0.01-37.15-0.02-56.09-0.03c0.41-1.48,0.7-2.56,1.01-3.63
				c3.6-12.46,7.14-24.94,10.81-37.39c4.92-16.72,9.92-33.41,14.95-50.09c0.51-1.69,1.45-3.25,2.17-4.84
				c31.67-0.01,63.11-0.01,94.82-0.02c0.01,3.91-1.71,7.38-2.63,11c-0.94,3.71-2.1,7.36-3.16,11.03c-1.11,3.83-2.16,7.69-3.34,11.5
				c-1.13,3.62-2.48,7.16-3.59,10.78c-1.11,3.62-2.05,7.3-3.15,11.28c6.11,0.21,10.2,0.85,16.24,1.05
				c1.36-4.76,2.61-9.37,4.01-13.94c4.26-13.93,8.57-27.85,13.05-42.38c12.56-0.93,26.59-0.47,39.45-0.47
				c0.44,0.19,0.17,0.4-0.28,1.79c-1.25,3.85-2.03,6.59-3.22,10.81c-0.65,2.29-1.29,4.39-1.94,6.68
				c-3.49,12.33-6.95,24.03-10.36,36.34c2.07,1.77,4.76,0.6,7.26,0.69c2.6,0.09,5.2,0.14,7.87,0.2c0.36-0.92,0.71-1.66,0.94-2.44
				c4.9-16.37,9.78-32.75,14.71-49.11c0.5-1.67,1.34-3.25,2.01-4.82c31.91,0,63.35,0,95.39-0.01c-5.19,18.84-10.36,37.27-16.7,55.91
				c6.02,0.76,11.31,0.31,16.73,0.3c5.68-18.79,11.24-37.17,16.94-56.01c13.07-0.36,26.12-0.21,39.83-0.08
				c-6.38,18.56-11.17,37.09-16.76,56.1c17.59,0.07,34.54,0.2,51.49,0.19c17,0,34.01-0.13,51.2-0.2c1.51-5.44,2.96-10.68,4.55-16.4
				c-9.35-0.8-18.6-0.18-27.82-0.32c-9.1-0.14-18.2,0.05-27.81-0.05c0.63-2.29,1.06-3.86,1.51-5.43c2.2-7.67,4.35-15.36,6.62-23.02
				c4.76-16.07,9.52-32.13,14.41-48.16c1.92-6.31,4.16-12.52,6.44-19.32c30.62-0.06,61.48-0.12,92.33-0.14
				c0.94,0,1.87,0.49,3.26,0.87c-0.9,3.24-1.7,6.42-2.68,9.54c-0.69,2.19-1.79,4.25-2.43,6.44c-3.59,12.29-7.04,24.63-10.66,36.91
				c-4.69,15.92-9.48,31.8-14.25,47.69c-4.29,14.3-8.59,28.59-12.94,42.87c-0.82,2.71-1.87,5.36-2.91,8.29
				c-122.64,0-245.03,0-367.55,0.01c-5.67,18.77-11.22,37.15-16.9,55.95c-1.9,0.1-3.81,0.27-5.73,0.28
				c-11.5,0.03-22.99,0.02-34.49,0.01C380.14,693.59,379.65,693.46,378.75,693.43z M572.43,581.02c-1.76-0.02-3.52-0.04-5.7-0.07
				c-1.48,5.33-2.88,10.38-4.45,16.03c-0.06-0.11,0.25,0.48,0.51,0.99c5.39-0.02,10.57-0.04,15.71-0.06
				c1.69-4.65,3.29-9.12,4.93-13.57c0.51-1.38,0.46-2.56-1.1-3.53C579.41,580.84,576.32,580.88,572.43,581.02z M398.23,597.88
				c4.21,0.04,7.47,0.02,11.9,0.06c1.8-6.5,3.16-10.7,5.03-17.46c-5.65,0.1-11.34,0-17.04,0c-0.77,2.77-1.5,5.94-2.25,8.64
				c-0.86,3.09-1.64,5.55-2.55,8.82C395.8,597.94,396.8,597.88,398.23,597.88z M795.93,524.15c-4.36,0.07-8.72,0.14-13.15,0.21
				c-1.57,5.66-3.02,10.89-4.6,16.59c5.54,0.61,10.82,0.6,16.06,0.21c1.14-2.81,2.3-5.34,3.17-7.96c0.88-2.65,1.46-5.4,2.18-8.13
				C798.35,524.72,797.56,524.5,795.93,524.15z"/>
			<path class="st1" d="M572.83,580.97c3.49-0.09,6.58-0.13,9.5-0.16c1.56,0.97,1.61,2.15,1.1,3.53c-1.64,4.46-3.24,8.92-4.93,13.57
				c-5.14,0.02-10.33,0.04-15.71,0.06c-0.26-0.51-0.57-1.09-0.51-0.99c1.57-5.65,2.97-10.7,4.45-16.03
				C568.91,580.98,570.67,581,572.83,580.97z"/>
			<path class="st1" d="M396.89,597.89c-1.19,0.04-1.98,0.02-3.06-0.01c-0.01-3.2,1.34-5.91,2.05-8.75
				c0.67-2.72,1.48-5.41,2.25-8.18c5.61-0.77,10.89-0.32,16.54-0.42c-0.55,6.4-3.45,11.46-4.53,17.42
				C405.71,597.9,401.5,597.86,396.89,597.89z"/>
		</g>
		<g>
			<path class="st2" d="M220.48,684.12c1.54-5.17,2.77-10.1,4.53-14.83c1.16-3.11,1.92-6.29,2.88-9.44
				c1.47-4.84,2.68-9.78,4.45-14.5c1.4-3.73,2.26-7.58,3.42-11.36c1.32-4.31,2.36-8.72,3.99-12.91c1.41-3.61,2.19-7.37,3.33-11.04
				c1.3-4.2,2.31-8.51,3.91-12.58c1.42-3.61,2.21-7.36,3.33-11.04c1.35-4.41,2.42-8.94,4.09-13.22c1.34-3.41,2.09-6.94,3.15-10.4
				c1.42-4.62,2.75-9.28,4.2-13.89c0.62-1.96,1.45-3.86,2.32-6.13c6.25-0.33,12.68,0.01,19.1,0.03c6.35,0.02,12.7,0.02,19.27,0.03
				c-0.31,2.49-0.93,4.78-1.83,7c-0.2,0.5-0.49,0.97-0.64,1.48c-1.96,6.66-3.88,13.33-5.85,19.99c-1.31,4.43-2.42,8.93-4.08,13.23
				c-1.16,2.99-1.88,6.08-2.8,9.12c-1.5,4.95-2.71,10-4.53,14.83c-1.48,3.94-2.36,8.01-3.58,12c-1.26,4.09-2.26,8.29-3.82,12.26
				c-1.42,3.61-2.18,7.37-3.35,11.03c-1.02,3.22-2.12,6.41-3.3,9.94c4.68,1,9.09,0.11,13.59,0.53c-3.25,13.04-6.46,25.89-9.73,39.01
				c-17.48-0.1-34.93-0.19-52.38-0.31c-0.72-0.01-1.44-0.34-2.04-0.49C218.91,689.65,219.65,687.05,220.48,684.12z"/>
		</g>
	</g>
	<polygon class="st0" points="820.24,472.54 833.67,429.91 874.21,429.91 860.79,472.54 	"/>
	<polygon class="st0" points="766.27,472.54 779.7,429.91 820.24,429.91 806.81,472.54 	"/>
	<polygon class="st0" points="650.93,696.1 664.36,653.47 704.9,653.47 691.47,696.1 	"/>
	<polygon class="st0" points="596.96,696.1 610.38,653.47 650.93,653.47 637.5,696.1 	"/>
	<polygon class="st0" points="429.29,527.16 442.71,484.53 483.26,484.53 469.83,527.16 	"/>
	<polygon class="st0" points="375.31,527.16 388.74,484.53 429.29,484.53 415.86,527.16 	"/>
	<polygon class="st0" points="486.27,527.16 499.69,484.53 540.24,484.53 526.81,527.16 	"/>
	<polygon class="st0" points="217.54,693.39 229.85,653.52 432.94,653.66 422.02,693.39 	"/>
	<path class="st3" d="M217.54,579.03c0.05-0.31,0.14-0.51,0.25-0.89c12.44-0.13,23.52-0.13,36-0.13
		c3.53-12.53,7.76-23.84,11.51-37.18c12.57,0,25.68,0,38.42,0c-3.93,13.94-7.12,24.61-10.93,37.25c12.73,0,23.48,0,36,0
		c-3.89,12.9-7.18,23.4-11,37.78c-12.58,0-24.35,0-37,0c-3.19,11.99-7.01,24.22-11,36.68c-12.57,0-26.1,0.62-38.9,0.62
		c4-13.12,6.81-23.83,10.9-37.23c-12.44,0-23.51,0-36,0.04c0.14-0.45,0.12-0.39,0.2-0.62c2.15-6.01,2.7-8.5,4.8-14.51
		C213.24,593.79,215.55,586.08,217.54,579.03z"/>
	<g>
		<path class="st0" d="M614.44,446.37c-0.85,6.1-1.68,12-2.51,17.92c-5.45,0-10.69,0-16.11,0c3.01-21.42,6.01-42.72,9.03-64.15
			c-7.12,0-14.16,0-21.44,0c-3,21.3-6.01,42.65-9.04,64.12c-5.4,0-10.69,0-16.11,0c3.77-26.78,7.52-53.43,11.29-80.2
			c30.39,0,60.7,0,91.24,0c-3.77,26.79-7.53,53.5-11.29,80.24c-5.41,0-10.65,0-16.11,0c3.01-21.42,6.01-42.71,9.03-64.15
			c-7.11,0-14.13,0-21.39,0c-0.32,2.11-0.66,4.29-0.97,6.47c-1.79,12.76-3.58,25.53-5.36,38.29
			C614.63,445.33,614.54,445.76,614.44,446.37z"/>
		<path class="st0" d="M434.11,392.42c-1.15,8.18-2.26,16.16-3.38,24.15c-1.22,8.7-2.45,17.4-3.68,26.1
			c-0.25,1.77-0.47,3.53-0.73,5.45c10.73,0,21.3,0,32.13,0c3.01-21.32,6.02-42.67,9.04-64.1c5.37,0,10.61,0,16.11,0
			c-3.76,26.76-7.52,53.44-11.29,80.24c-21.47,0-42.85,0-64.41,0c3.77-26.77,7.52-53.42,11.29-80.21c5.37,0,10.66,0,16.11,0
			C434.91,386.86,434.53,389.55,434.11,392.42z"/>
		<path class="st0" d="M483.4,461.08c0.99-6.96,1.96-13.73,2.92-20.5c1.23-8.7,2.44-17.4,3.66-26.09
			c1.23-8.77,2.47-17.54,3.71-26.31c0.19-1.34,0.39-2.68,0.6-4.13c21.45,0,42.82,0,64.38,0c-2.26,15.99-4.49,31.87-6.77,48.03
			c-5.29,0.16-10.59,0.05-15.89,0.07c-5.41,0.02-10.81,0-16.22,0c-5.33,0-10.66,0-16.18,0c-1.52,10.77-3.02,21.43-4.53,32.15
			c-5.41,0-10.65,0-16.01,0C483.17,463.23,483.27,462.25,483.4,461.08z M536.2,416.06c0.61-0.05,1.23-0.09,1.85-0.14
			c0.76-5.37,1.5-10.54,2.23-15.71c-3.13-0.42-30.7-0.28-32.2,0.16c-0.73,5.15-1.47,10.32-2.23,15.7
			C515.95,416.06,525.87,416.06,536.2,416.06z"/>
		<path class="st0" d="M263.76,421.86c1.79-12.72,3.55-25.26,5.31-37.84c5.42,0,10.66,0,16.11,0c-1.51,10.69-3,21.26-4.52,32.04
			c3.61,0,6.99-0.02,10.36,0.01c1.03,0.01,1.29-0.82,1.72-1.42c5.4-7.48,10.77-14.97,16.15-22.46c1.72-2.4,3.47-4.78,5.16-7.2
			c0.49-0.71,1-1.09,1.92-1.08c5.55,0.05,11.1,0.03,16.65,0.04c0.13,0,0.25,0.09,0.66,0.24c-9.6,13.36-19.16,26.66-28.71,39.96
			c5.86,13.4,11.67,26.69,17.56,40.17c-6.36,0-12.39,0-18.62,0c-4.67-10.66-9.36-21.38-14.03-32.07c-3.75,0-7.33,0-11.1,0
			c-1.5,10.66-2.99,21.26-4.5,32c-5.35,0-10.64,0-16.1,0C259.77,450.12,261.74,436.08,263.76,421.86z"/>
		<path class="st0" d="M402.34,428.08c-0.21,1.39-0.4,2.59-0.61,3.97c-16.01,0-31.98,0-48.24,0c-1.52,10.79-3.02,21.44-4.54,32.2
			c-5.38,0-10.67,0-16.1,0c3.76-26.74,7.51-53.39,11.28-80.18c21.41,0,42.77,0,64.4,0c-0.74,5.27-1.47,10.5-2.22,15.87
			c-16.08,0-32.06,0-48.27,0c-0.77,5.35-1.53,10.59-2.32,16.05c16.06,0,32.02,0,48.26,0C403.42,420.12,402.89,424,402.34,428.08z"/>
	</g>
</g>
</svg>
