<?xml version="1.0" encoding="UTF-8" standalone="no"?>
<!DOCTYPE svg PUBLIC "-//W3C//DTD SVG 1.1//EN" "http://www.w3.org/Graphics/SVG/1.1/DTD/svg11.dtd">
<svg xmlns="http://www.w3.org/2000/svg" version="1.1" viewBox="0.00 0.00 2929.00 1072.00">
<path stroke="#83283a" stroke-width="2.00" fill="none" stroke-linecap="butt" vector-effect="non-scaling-stroke" d="
  M 2471.19 607.55
  Q 2471.17 605.54 2472.19 605.70"
/>
<path fill="#161616" d="
  M 384.75 287.73
  L 469.88 169.27
  A 0.38 0.38 0.0 0 1 470.18 169.11
  L 538.09 169.09
  A 0.38 0.38 0.0 0 1 538.40 169.69
  L 432.19 317.49
  A 0.38 0.38 0.0 0 0 432.15 317.87
  L 496.80 465.71
  A 0.38 0.38 0.0 0 1 496.45 466.24
  L 428.46 466.31
  A 0.38 0.38 0.0 0 1 428.11 466.08
  L 376.43 347.59
  A 0.38 0.38 0.0 0 0 376.08 347.36
  L 335.80 347.38
  A 0.38 0.38 0.0 0 0 335.42 347.71
  L 318.94 465.95
  A 0.38 0.38 0.0 0 1 318.56 466.28
  L 259.68 466.27
  A 0.38 0.38 0.0 0 1 259.30 465.84
  L 300.99 169.45
  A 0.38 0.38 0.0 0 1 301.37 169.12
  L 360.21 169.08
  A 0.38 0.38 0.0 0 1 360.59 169.51
  L 343.84 287.51
  A 0.38 0.38 0.0 0 0 344.22 287.94
  L 384.45 287.89
  A 0.38 0.38 0.0 0 0 384.75 287.73
  Z"
/>
<path fill="#161616" d="
  M 621.25 287.92
  L 798.33 287.92
  A 0.48 0.48 0.0 0 1 798.80 288.47
  L 790.67 346.95
  A 0.48 0.48 0.0 0 1 790.19 347.36
  L 612.81 347.37
  A 0.48 0.48 0.0 0 0 612.33 347.78
  L 595.86 465.86
  A 0.48 0.48 0.0 0 1 595.38 466.27
  L 536.75 466.22
  A 0.48 0.48 0.0 0 1 536.28 465.67
  L 577.95 169.52
  A 0.48 0.48 0.0 0 1 578.43 169.11
  L 815.20 169.10
  A 0.48 0.48 0.0 0 1 815.67 169.65
  L 807.44 228.19
  A 0.48 0.48 0.0 0 1 806.96 228.60
  L 629.68 228.63
  A 0.48 0.48 0.0 0 0 629.20 229.04
  L 620.78 287.37
  A 0.48 0.48 0.0 0 0 621.25 287.92
  Z"
/>
<path fill="#161616" d="
  M 881.09 406.48
  A 0.17 0.16 -86.8 0 0 881.25 406.67
  L 998.99 406.67
  A 0.77 0.76 3.9 0 0 999.75 406.01
  L 1032.99 169.76
  A 0.78 0.77 -85.6 0 1 1033.75 169.10
  L 1092.03 169.10
  Q 1092.71 169.10 1092.61 169.78
  L 1051.04 465.27
  Q 1050.89 466.28 1049.87 466.28
  Q 859.01 466.30 818.01 466.22
  Q 815.68 466.21 813.61 466.16
  A 0.40 0.40 0.0 0 1 813.22 465.71
  L 854.88 169.62
  A 0.61 0.60 3.8 0 1 855.48 169.10
  L 914.05 169.10
  Q 914.49 169.10 914.43 169.54
  L 881.09 406.48
  Z"
/>
<path fill="#161616" d="
  M 1166.23 347.75
  L 1149.72 465.87
  A 0.44 0.44 0.0 0 1 1149.29 466.25
  L 1090.55 466.30
  A 0.44 0.44 0.0 0 1 1090.11 465.80
  L 1131.84 169.49
  A 0.44 0.44 0.0 0 1 1132.27 169.11
  L 1369.13 169.10
  A 0.44 0.44 0.0 0 1 1369.57 169.60
  L 1344.51 346.98
  A 0.44 0.44 0.0 0 1 1344.08 347.36
  L 1166.66 347.37
  A 0.44 0.44 0.0 0 0 1166.23 347.75
  Z
  M 1292.69 287.91
  A 0.56 0.56 0.0 0 0 1293.25 287.43
  L 1301.64 229.24
  A 0.56 0.56 0.0 0 0 1301.08 228.60
  L 1183.61 228.61
  A 0.56 0.56 0.0 0 0 1183.06 229.09
  L 1174.66 287.28
  A 0.56 0.56 0.0 0 0 1175.22 287.92
  L 1292.69 287.91
  Z"
/>
<path fill="#161616" d="
  M 1677.94 228.60
  L 1599.79 228.62
  A 0.44 0.44 0.0 0 0 1599.36 229.00
  L 1566.03 465.86
  A 0.44 0.44 0.0 0 1 1565.60 466.24
  L 1506.91 466.30
  A 0.44 0.44 0.0 0 1 1506.47 465.80
  L 1539.79 229.09
  A 0.44 0.44 0.0 0 0 1539.35 228.59
  L 1461.22 228.63
  A 0.44 0.44 0.0 0 0 1460.79 229.01
  L 1427.45 465.89
  A 0.44 0.44 0.0 0 1 1427.02 466.27
  L 1368.31 466.19
  A 0.44 0.44 0.0 0 1 1367.87 465.69
  L 1409.57 169.49
  A 0.44 0.44 0.0 0 1 1410.00 169.11
  L 1745.84 169.10
  A 0.44 0.44 0.0 0 1 1746.28 169.60
  L 1704.62 465.90
  A 0.44 0.44 0.0 0 1 1704.19 466.28
  L 1645.47 466.24
  A 0.44 0.44 0.0 0 1 1645.03 465.74
  L 1678.38 229.10
  A 0.44 0.44 0.0 0 0 1677.94 228.60
  Z"
/>
<path fill="#ef3a5d" d="
  M 2471.19 607.55
  Q 2471.17 605.54 2472.19 605.70
  L 2557.71 605.65
  Q 2558.20 605.65 2558.27 605.17
  L 2570.32 519.51
  Q 2570.40 518.92 2571.00 518.92
  L 2657.01 518.92
  A 0.29 0.28 -85.6 0 1 2657.29 519.25
  L 2645.15 605.55
  A 0.15 0.14 4.8 0 0 2645.30 605.72
  L 2731.30 605.72
  A 0.49 0.49 0.0 0 1 2731.78 606.28
  L 2719.72 691.99
  A 0.66 0.65 4.0 0 1 2719.07 692.55
  L 2633.43 692.55
  Q 2632.89 692.55 2632.81 693.09
  L 2620.73 778.96
  A 0.47 0.46 -85.7 0 1 2620.27 779.36
  L 2534.07 779.36
  A 0.29 0.28 -85.6 0 1 2533.79 779.03
  L 2545.91 692.86
  A 0.27 0.26 -86.2 0 0 2545.65 692.55
  L 2460.03 692.55
  Q 2459.23 692.55 2459.35 691.77
  L 2471.19 607.55
  Z"
/>
<path fill="#161616" d="
  M 478.48 779.28
  Q 478.55 778.76 478.03 778.76
  L 393.46 778.76
  Q 392.89 778.76 392.97 778.19
  L 404.88 693.51
  A 0.50 0.49 -86.0 0 1 405.37 693.08
  L 575.83 693.08
  A 0.46 0.45 -86.1 0 1 576.28 693.60
  L 540.29 949.38
  A 0.58 0.57 4.0 0 1 539.72 949.87
  L 198.47 949.87
  Q 197.82 949.87 197.91 949.22
  L 258.01 522.04
  A 0.22 0.21 -85.2 0 1 258.22 521.86
  L 599.98 521.86
  Q 600.54 521.86 600.46 522.41
  L 588.53 607.19
  A 0.42 0.42 0.0 0 1 588.11 607.55
  L 332.49 607.55
  A 0.86 0.85 3.8 0 0 331.64 608.29
  L 295.68 863.86
  A 0.39 0.39 0.0 0 0 296.07 864.31
  L 465.92 864.31
  A 0.69 0.68 3.8 0 0 466.60 863.72
  L 478.48 779.28
  Z"
/>
<path fill="#161616" d="
  M 877.17 778.77
  L 706.90 778.78
  A 0.36 0.36 0.0 0 0 706.55 779.09
  L 682.69 949.56
  A 0.36 0.36 0.0 0 1 682.34 949.87
  L 597.25 949.88
  A 0.36 0.36 0.0 0 1 596.90 949.47
  L 657.04 522.17
  A 0.36 0.36 0.0 0 1 657.39 521.86
  L 999.17 521.85
  A 0.36 0.36 0.0 0 1 999.52 522.26
  L 939.39 949.56
  A 0.36 0.36 0.0 0 1 939.04 949.87
  L 854.01 949.87
  A 0.36 0.36 0.0 0 1 853.66 949.46
  L 877.52 779.18
  A 0.36 0.36 0.0 0 0 877.17 778.77
  Z
  M 731.22 607.55
  A 0.41 0.41 0.0 0 0 730.81 607.90
  L 718.63 692.62
  A 0.41 0.41 0.0 0 0 719.03 693.09
  L 889.17 693.08
  A 0.41 0.41 0.0 0 0 889.58 692.73
  L 901.76 608.02
  A 0.41 0.41 0.0 0 0 901.36 607.55
  L 731.22 607.55
  Z"
/>
<path fill="#161616" d="
  M 1444.17 608.14
  Q 1444.26 607.55 1443.66 607.55
  L 1331.03 607.55
  A 0.80 0.79 -85.8 0 0 1330.25 608.23
  L 1282.26 949.35
  A 0.62 0.61 4.3 0 1 1281.65 949.87
  L 1196.77 949.87
  A 0.30 0.30 0.0 0 1 1196.47 949.53
  L 1244.50 608.18
  A 0.56 0.55 4.0 0 0 1243.95 607.55
  L 1131.49 607.55
  Q 1130.66 607.55 1130.54 608.37
  L 1082.59 949.19
  A 0.80 0.79 -85.8 0 1 1081.81 949.87
  L 997.42 949.87
  Q 996.70 949.87 996.80 949.16
  L 1056.85 522.35
  A 0.58 0.57 4.0 0 1 1057.42 521.86
  L 1541.68 521.86
  Q 1542.03 521.86 1541.99 522.20
  L 1481.90 949.27
  A 0.70 0.70 0.0 0 1 1481.21 949.87
  L 1396.71 949.87
  Q 1396.09 949.87 1396.18 949.26
  L 1444.17 608.14
  Z"
/>
<path fill="#161616" d="
  M 1684.52 522.30
  L 1624.44 949.52
  A 0.41 0.41 0.0 0 1 1624.03 949.87
  L 1539.10 949.87
  A 0.41 0.41 0.0 0 1 1538.70 949.40
  L 1598.76 522.22
  A 0.41 0.41 0.0 0 1 1599.17 521.87
  L 1684.12 521.83
  A 0.41 0.41 0.0 0 1 1684.52 522.30
  Z"
/>
<path fill="#161616" d="
  M 1985.89 607.54
  L 1815.83 607.56
  A 0.46 0.46 0.0 0 0 1815.37 607.96
  L 1767.30 949.47
  A 0.46 0.46 0.0 0 1 1766.84 949.87
  L 1682.00 949.87
  A 0.46 0.46 0.0 0 1 1681.54 949.35
  L 1741.61 522.26
  A 0.46 0.46 0.0 0 1 1742.07 521.86
  L 2083.68 521.85
  A 0.46 0.46 0.0 0 1 2084.14 522.37
  L 2024.03 949.47
  A 0.46 0.46 0.0 0 1 2023.57 949.87
  L 1938.72 949.87
  A 0.46 0.46 0.0 0 1 1938.26 949.35
  L 1986.35 608.06
  A 0.46 0.46 0.0 0 0 1985.89 607.54
  Z"
/>
<path fill="#161616" d="
  M 2472.19 605.70
  Q 2471.17 605.54 2471.19 607.55
  L 2216.14 607.56
  A 1.06 1.05 3.7 0 0 2215.09 608.47
  L 2179.16 863.83
  A 0.42 0.42 0.0 0 0 2179.57 864.31
  L 2349.46 864.31
  A 0.64 0.63 4.2 0 0 2350.09 863.77
  L 2361.94 779.52
  Q 2362.05 778.77 2361.29 778.77
  L 2276.96 778.77
  Q 2276.39 778.77 2276.47 778.21
  L 2288.42 693.31
  Q 2288.45 693.08 2288.67 693.08
  L 2458.86 693.08
  A 0.86 0.86 0.0 0 1 2459.71 694.06
  L 2423.79 949.32
  Q 2423.72 949.87 2423.15 949.87
  L 2081.75 949.87
  A 0.39 0.38 -86.1 0 1 2081.37 949.43
  L 2141.50 522.06
  A 0.24 0.23 4.1 0 1 2141.74 521.86
  L 2483.74 521.86
  Q 2484.03 521.86 2483.99 522.15
  L 2472.19 605.70
  Z"
/>
</svg>
